<mxfile host="app.diagrams.net" agent="Mozilla/5.0 (Windows NT 10.0; Win64; x64) AppleWebKit/537.36 (KHTML, like Gecko) Chrome/129.0.0.0 Safari/537.36" version="24.7.17">
  <diagram name="Página-1" id="zopX7SlKxUzT-Nm-5fwE">
    <mxGraphModel dx="1434" dy="1941" grid="1" gridSize="10" guides="1" tooltips="1" connect="1" arrows="1" fold="1" page="1" pageScale="1" pageWidth="827" pageHeight="1169" math="0" shadow="0">
      <root>
        <mxCell id="0" />
        <mxCell id="1" parent="0" />
        <mxCell id="RIxAADwld2-dv8vtKW1H-50" style="edgeStyle=none;shape=connector;rounded=0;orthogonalLoop=1;jettySize=auto;html=1;exitX=0.5;exitY=1;exitDx=0;exitDy=0;entryX=0.5;entryY=0;entryDx=0;entryDy=0;strokeColor=default;align=center;verticalAlign=middle;fontFamily=Helvetica;fontSize=11;fontColor=default;labelBackgroundColor=default;endArrow=none;endFill=0;" edge="1" parent="1" source="RIxAADwld2-dv8vtKW1H-73" target="RIxAADwld2-dv8vtKW1H-42">
          <mxGeometry relative="1" as="geometry" />
        </mxCell>
        <mxCell id="RIxAADwld2-dv8vtKW1H-65" style="edgeStyle=none;shape=connector;rounded=0;orthogonalLoop=1;jettySize=auto;html=1;exitX=1;exitY=1;exitDx=0;exitDy=0;entryX=0;entryY=0;entryDx=0;entryDy=0;strokeColor=default;align=center;verticalAlign=middle;fontFamily=Helvetica;fontSize=11;fontColor=default;labelBackgroundColor=default;endArrow=none;endFill=0;" edge="1" parent="1" source="RIxAADwld2-dv8vtKW1H-2" target="RIxAADwld2-dv8vtKW1H-64">
          <mxGeometry relative="1" as="geometry" />
        </mxCell>
        <mxCell id="RIxAADwld2-dv8vtKW1H-2" value="Departamento" style="rounded=0;whiteSpace=wrap;html=1;fillColor=#ffe6cc;strokeColor=#d79b00;" vertex="1" parent="1">
          <mxGeometry x="370" y="-120" width="120" height="60" as="geometry" />
        </mxCell>
        <mxCell id="RIxAADwld2-dv8vtKW1H-61" style="edgeStyle=none;shape=connector;rounded=0;orthogonalLoop=1;jettySize=auto;html=1;exitX=0.5;exitY=1;exitDx=0;exitDy=0;entryX=0.5;entryY=0;entryDx=0;entryDy=0;strokeColor=default;align=center;verticalAlign=middle;fontFamily=Helvetica;fontSize=11;fontColor=default;labelBackgroundColor=default;endArrow=none;endFill=0;" edge="1" parent="1" source="RIxAADwld2-dv8vtKW1H-3" target="RIxAADwld2-dv8vtKW1H-60">
          <mxGeometry relative="1" as="geometry" />
        </mxCell>
        <mxCell id="RIxAADwld2-dv8vtKW1H-3" value="Vendedores" style="rounded=0;whiteSpace=wrap;html=1;fillColor=#0050ef;fontColor=#ffffff;strokeColor=#001DBC;" vertex="1" parent="1">
          <mxGeometry x="650" y="260" width="120" height="60" as="geometry" />
        </mxCell>
        <mxCell id="RIxAADwld2-dv8vtKW1H-27" style="edgeStyle=orthogonalEdgeStyle;shape=connector;curved=1;rounded=0;orthogonalLoop=1;jettySize=auto;html=1;exitX=1;exitY=0.5;exitDx=0;exitDy=0;entryX=0.5;entryY=0;entryDx=0;entryDy=0;strokeColor=default;align=center;verticalAlign=middle;fontFamily=Helvetica;fontSize=11;fontColor=default;labelBackgroundColor=default;endArrow=none;endFill=0;" edge="1" parent="1" source="RIxAADwld2-dv8vtKW1H-4">
          <mxGeometry relative="1" as="geometry">
            <mxPoint x="287.5" y="290" as="targetPoint" />
          </mxGeometry>
        </mxCell>
        <mxCell id="RIxAADwld2-dv8vtKW1H-4" value="Gerente" style="rounded=0;whiteSpace=wrap;html=1;fillColor=#0050ef;fontColor=#ffffff;strokeColor=#001DBC;" vertex="1" parent="1">
          <mxGeometry x="100" y="260" width="120" height="60" as="geometry" />
        </mxCell>
        <mxCell id="RIxAADwld2-dv8vtKW1H-29" style="shape=connector;rounded=0;orthogonalLoop=1;jettySize=auto;html=1;exitX=1;exitY=0.5;exitDx=0;exitDy=0;entryX=0.5;entryY=0;entryDx=0;entryDy=0;strokeColor=default;align=center;verticalAlign=middle;fontFamily=Helvetica;fontSize=11;fontColor=default;labelBackgroundColor=default;endArrow=none;endFill=0;" edge="1" parent="1" source="RIxAADwld2-dv8vtKW1H-5">
          <mxGeometry relative="1" as="geometry">
            <mxPoint x="557.5" y="290" as="targetPoint" />
          </mxGeometry>
        </mxCell>
        <mxCell id="RIxAADwld2-dv8vtKW1H-5" value="Jefe" style="rounded=0;whiteSpace=wrap;html=1;fillColor=#0050ef;fontColor=#ffffff;strokeColor=#001DBC;" vertex="1" parent="1">
          <mxGeometry x="370" y="260" width="120" height="60" as="geometry" />
        </mxCell>
        <mxCell id="RIxAADwld2-dv8vtKW1H-14" style="edgeStyle=orthogonalEdgeStyle;shape=connector;rounded=0;orthogonalLoop=1;jettySize=auto;html=1;exitX=0;exitY=0.5;exitDx=0;exitDy=0;entryX=0.5;entryY=0;entryDx=0;entryDy=0;strokeColor=default;align=center;verticalAlign=middle;fontFamily=Helvetica;fontSize=11;fontColor=default;labelBackgroundColor=default;endArrow=none;endFill=0;" edge="1" parent="1" target="RIxAADwld2-dv8vtKW1H-4">
          <mxGeometry relative="1" as="geometry">
            <mxPoint x="160" y="110" as="sourcePoint" />
          </mxGeometry>
        </mxCell>
        <mxCell id="RIxAADwld2-dv8vtKW1H-58" style="edgeStyle=none;shape=connector;rounded=0;orthogonalLoop=1;jettySize=auto;html=1;exitX=0.5;exitY=0;exitDx=0;exitDy=0;entryX=0;entryY=1;entryDx=0;entryDy=0;strokeColor=default;align=center;verticalAlign=middle;fontFamily=Helvetica;fontSize=11;fontColor=default;labelBackgroundColor=default;endArrow=none;endFill=0;" edge="1" parent="1" source="RIxAADwld2-dv8vtKW1H-81" target="RIxAADwld2-dv8vtKW1H-2">
          <mxGeometry relative="1" as="geometry">
            <mxPoint x="160" y="70" as="sourcePoint" />
          </mxGeometry>
        </mxCell>
        <mxCell id="RIxAADwld2-dv8vtKW1H-28" style="edgeStyle=orthogonalEdgeStyle;shape=connector;curved=1;rounded=0;orthogonalLoop=1;jettySize=auto;html=1;exitX=0.5;exitY=1;exitDx=0;exitDy=0;entryX=0;entryY=0.5;entryDx=0;entryDy=0;strokeColor=default;align=center;verticalAlign=middle;fontFamily=Helvetica;fontSize=11;fontColor=default;labelBackgroundColor=default;endArrow=none;endFill=0;" edge="1" parent="1" target="RIxAADwld2-dv8vtKW1H-5">
          <mxGeometry relative="1" as="geometry">
            <mxPoint x="312.5" y="290" as="sourcePoint" />
          </mxGeometry>
        </mxCell>
        <mxCell id="RIxAADwld2-dv8vtKW1H-11" value="" style="ellipse;whiteSpace=wrap;html=1;aspect=fixed;" vertex="1" parent="1">
          <mxGeometry x="40" y="-180" width="20" height="20" as="geometry" />
        </mxCell>
        <mxCell id="RIxAADwld2-dv8vtKW1H-30" style="shape=connector;rounded=0;orthogonalLoop=1;jettySize=auto;html=1;exitX=0.5;exitY=1;exitDx=0;exitDy=0;entryX=0;entryY=0.5;entryDx=0;entryDy=0;strokeColor=default;align=center;verticalAlign=middle;fontFamily=Helvetica;fontSize=11;fontColor=default;labelBackgroundColor=default;endArrow=none;endFill=0;" edge="1" parent="1" target="RIxAADwld2-dv8vtKW1H-3">
          <mxGeometry relative="1" as="geometry">
            <mxPoint x="582.5" y="290" as="sourcePoint" />
          </mxGeometry>
        </mxCell>
        <mxCell id="RIxAADwld2-dv8vtKW1H-34" value="Cliente" style="rounded=0;whiteSpace=wrap;html=1;fillColor=#0050ef;fontColor=#ffffff;strokeColor=#001DBC;" vertex="1" parent="1">
          <mxGeometry x="450" y="390" width="120" height="60" as="geometry" />
        </mxCell>
        <mxCell id="RIxAADwld2-dv8vtKW1H-35" value="ID artículo" style="ellipse;whiteSpace=wrap;html=1;fontFamily=Helvetica;fontSize=11;fontColor=default;labelBackgroundColor=default;" vertex="1" parent="1">
          <mxGeometry x="760" y="190" width="60" height="50" as="geometry" />
        </mxCell>
        <mxCell id="RIxAADwld2-dv8vtKW1H-41" value="(1,1)" style="text;strokeColor=none;align=center;fillColor=none;html=1;verticalAlign=middle;whiteSpace=wrap;rounded=0;fontFamily=Helvetica;fontSize=11;fontColor=default;labelBackgroundColor=default;" vertex="1" parent="1">
          <mxGeometry x="300" y="-70" width="60" height="30" as="geometry" />
        </mxCell>
        <mxCell id="RIxAADwld2-dv8vtKW1H-42" value="Trabajadores" style="rounded=0;whiteSpace=wrap;html=1;fillColor=#1ba1e2;fontColor=#ffffff;strokeColor=#006EAF;" vertex="1" parent="1">
          <mxGeometry x="370" y="60" width="120" height="60" as="geometry" />
        </mxCell>
        <mxCell id="RIxAADwld2-dv8vtKW1H-43" value="(1,1)" style="text;strokeColor=none;align=center;fillColor=none;html=1;verticalAlign=middle;whiteSpace=wrap;rounded=0;fontFamily=Helvetica;fontSize=11;fontColor=default;labelBackgroundColor=default;" vertex="1" parent="1">
          <mxGeometry x="150" y="230" width="60" height="30" as="geometry" />
        </mxCell>
        <mxCell id="RIxAADwld2-dv8vtKW1H-44" value="(1,1)" style="text;strokeColor=none;align=center;fillColor=none;html=1;verticalAlign=middle;whiteSpace=wrap;rounded=0;fontFamily=Helvetica;fontSize=11;fontColor=default;labelBackgroundColor=default;" vertex="1" parent="1">
          <mxGeometry x="210" y="265" width="60" height="30" as="geometry" />
        </mxCell>
        <mxCell id="RIxAADwld2-dv8vtKW1H-45" style="edgeStyle=none;shape=connector;rounded=0;orthogonalLoop=1;jettySize=auto;html=1;exitX=0.25;exitY=0;exitDx=0;exitDy=0;strokeColor=default;align=center;verticalAlign=middle;fontFamily=Helvetica;fontSize=11;fontColor=default;labelBackgroundColor=default;endArrow=none;endFill=0;" edge="1" parent="1" source="RIxAADwld2-dv8vtKW1H-44" target="RIxAADwld2-dv8vtKW1H-44">
          <mxGeometry relative="1" as="geometry" />
        </mxCell>
        <mxCell id="RIxAADwld2-dv8vtKW1H-46" value="(1,N)" style="text;strokeColor=none;align=center;fillColor=none;html=1;verticalAlign=middle;whiteSpace=wrap;rounded=0;fontFamily=Helvetica;fontSize=11;fontColor=default;labelBackgroundColor=default;" vertex="1" parent="1">
          <mxGeometry x="320" y="265" width="60" height="30" as="geometry" />
        </mxCell>
        <mxCell id="RIxAADwld2-dv8vtKW1H-47" value="(1,N)" style="text;strokeColor=none;align=center;fillColor=none;html=1;verticalAlign=middle;whiteSpace=wrap;rounded=0;fontFamily=Helvetica;fontSize=11;fontColor=default;labelBackgroundColor=default;" vertex="1" parent="1">
          <mxGeometry x="600" y="265" width="60" height="30" as="geometry" />
        </mxCell>
        <mxCell id="RIxAADwld2-dv8vtKW1H-48" value="(1,1)" style="text;strokeColor=none;align=center;fillColor=none;html=1;verticalAlign=middle;whiteSpace=wrap;rounded=0;fontFamily=Helvetica;fontSize=11;fontColor=default;labelBackgroundColor=default;" vertex="1" parent="1">
          <mxGeometry x="480" y="265" width="60" height="30" as="geometry" />
        </mxCell>
        <mxCell id="RIxAADwld2-dv8vtKW1H-54" style="edgeStyle=none;shape=connector;rounded=0;orthogonalLoop=1;jettySize=auto;html=1;exitX=0;exitY=0.25;exitDx=0;exitDy=0;entryX=1;entryY=0;entryDx=0;entryDy=0;strokeColor=default;align=center;verticalAlign=middle;fontFamily=Helvetica;fontSize=11;fontColor=default;labelBackgroundColor=default;endArrow=none;endFill=0;" edge="1" parent="1" source="RIxAADwld2-dv8vtKW1H-51" target="RIxAADwld2-dv8vtKW1H-4">
          <mxGeometry relative="1" as="geometry" />
        </mxCell>
        <mxCell id="RIxAADwld2-dv8vtKW1H-55" style="edgeStyle=none;shape=connector;rounded=0;orthogonalLoop=1;jettySize=auto;html=1;exitX=0;exitY=0.75;exitDx=0;exitDy=0;entryX=0;entryY=0;entryDx=0;entryDy=0;strokeColor=default;align=center;verticalAlign=middle;fontFamily=Helvetica;fontSize=11;fontColor=default;labelBackgroundColor=default;endArrow=none;endFill=0;" edge="1" parent="1" source="RIxAADwld2-dv8vtKW1H-51" target="RIxAADwld2-dv8vtKW1H-3">
          <mxGeometry relative="1" as="geometry" />
        </mxCell>
        <mxCell id="RIxAADwld2-dv8vtKW1H-56" style="edgeStyle=none;shape=connector;rounded=0;orthogonalLoop=1;jettySize=auto;html=1;exitX=0;exitY=0.5;exitDx=0;exitDy=0;entryX=0.5;entryY=0;entryDx=0;entryDy=0;strokeColor=default;align=center;verticalAlign=middle;fontFamily=Helvetica;fontSize=11;fontColor=default;labelBackgroundColor=default;endArrow=none;endFill=0;" edge="1" parent="1" source="RIxAADwld2-dv8vtKW1H-51" target="RIxAADwld2-dv8vtKW1H-5">
          <mxGeometry relative="1" as="geometry" />
        </mxCell>
        <mxCell id="RIxAADwld2-dv8vtKW1H-57" style="edgeStyle=none;shape=connector;rounded=0;orthogonalLoop=1;jettySize=auto;html=1;exitX=1;exitY=0.5;exitDx=0;exitDy=0;entryX=0.5;entryY=1;entryDx=0;entryDy=0;strokeColor=default;align=center;verticalAlign=middle;fontFamily=Helvetica;fontSize=11;fontColor=default;labelBackgroundColor=default;endArrow=none;endFill=0;" edge="1" parent="1" source="RIxAADwld2-dv8vtKW1H-51" target="RIxAADwld2-dv8vtKW1H-42">
          <mxGeometry relative="1" as="geometry" />
        </mxCell>
        <mxCell id="RIxAADwld2-dv8vtKW1H-51" value="" style="triangle;whiteSpace=wrap;html=1;rotation=-90;" vertex="1" parent="1">
          <mxGeometry x="410" y="140" width="40" height="50" as="geometry" />
        </mxCell>
        <mxCell id="RIxAADwld2-dv8vtKW1H-52" value="" style="endArrow=none;html=1;rounded=0;strokeColor=default;align=center;verticalAlign=middle;fontFamily=Helvetica;fontSize=11;fontColor=default;labelBackgroundColor=default;endFill=0;edgeStyle=orthogonalEdgeStyle;curved=1;" edge="1" parent="1">
          <mxGeometry width="50" height="50" relative="1" as="geometry">
            <mxPoint x="80" y="-170" as="sourcePoint" />
            <mxPoint x="160" y="-170" as="targetPoint" />
            <Array as="points">
              <mxPoint x="80" y="-150" />
              <mxPoint x="160" y="-150" />
            </Array>
          </mxGeometry>
        </mxCell>
        <mxCell id="RIxAADwld2-dv8vtKW1H-53" value="" style="endArrow=none;html=1;rounded=0;strokeColor=default;align=center;verticalAlign=middle;fontFamily=Helvetica;fontSize=11;fontColor=default;labelBackgroundColor=default;endFill=0;edgeStyle=orthogonalEdgeStyle;curved=1;" edge="1" parent="1">
          <mxGeometry width="50" height="50" relative="1" as="geometry">
            <mxPoint x="390" y="180" as="sourcePoint" />
            <mxPoint x="470" y="180" as="targetPoint" />
            <Array as="points">
              <mxPoint x="390" y="200" />
              <mxPoint x="470" y="200" />
            </Array>
          </mxGeometry>
        </mxCell>
        <mxCell id="RIxAADwld2-dv8vtKW1H-60" value="Vende" style="rhombus;whiteSpace=wrap;html=1;fontFamily=Helvetica;fontSize=11;fontColor=#ffffff;labelBackgroundColor=#333333;fillColor=#60a917;strokeColor=#2D7600;" vertex="1" parent="1">
          <mxGeometry x="680" y="370" width="60" height="60" as="geometry" />
        </mxCell>
        <mxCell id="RIxAADwld2-dv8vtKW1H-62" style="edgeStyle=none;shape=connector;rounded=0;orthogonalLoop=1;jettySize=auto;html=1;exitX=0;exitY=0.5;exitDx=0;exitDy=0;entryX=1.025;entryY=0.117;entryDx=0;entryDy=0;entryPerimeter=0;strokeColor=default;align=center;verticalAlign=middle;fontFamily=Helvetica;fontSize=11;fontColor=default;labelBackgroundColor=default;endArrow=none;endFill=0;" edge="1" parent="1" source="RIxAADwld2-dv8vtKW1H-60" target="RIxAADwld2-dv8vtKW1H-34">
          <mxGeometry relative="1" as="geometry" />
        </mxCell>
        <mxCell id="RIxAADwld2-dv8vtKW1H-67" style="edgeStyle=none;shape=connector;rounded=0;orthogonalLoop=1;jettySize=auto;html=1;exitX=0.5;exitY=1;exitDx=0;exitDy=0;entryX=0.5;entryY=0;entryDx=0;entryDy=0;strokeColor=default;align=center;verticalAlign=middle;fontFamily=Helvetica;fontSize=11;fontColor=default;labelBackgroundColor=default;endArrow=none;endFill=0;" edge="1" parent="1" source="RIxAADwld2-dv8vtKW1H-64" target="RIxAADwld2-dv8vtKW1H-66">
          <mxGeometry relative="1" as="geometry" />
        </mxCell>
        <mxCell id="RIxAADwld2-dv8vtKW1H-64" value="Producto" style="rounded=0;whiteSpace=wrap;html=1;fillColor=#a20025;fontColor=#ffffff;strokeColor=#6F0000;" vertex="1" parent="1">
          <mxGeometry x="650" y="20" width="120" height="60" as="geometry" />
        </mxCell>
        <mxCell id="RIxAADwld2-dv8vtKW1H-68" style="edgeStyle=none;shape=connector;rounded=0;orthogonalLoop=1;jettySize=auto;html=1;exitX=0.5;exitY=1;exitDx=0;exitDy=0;entryX=0.5;entryY=0;entryDx=0;entryDy=0;strokeColor=default;align=center;verticalAlign=middle;fontFamily=Helvetica;fontSize=11;fontColor=default;labelBackgroundColor=default;endArrow=none;endFill=0;" edge="1" parent="1" source="RIxAADwld2-dv8vtKW1H-66" target="RIxAADwld2-dv8vtKW1H-3">
          <mxGeometry relative="1" as="geometry" />
        </mxCell>
        <mxCell id="RIxAADwld2-dv8vtKW1H-66" value="&lt;span style=&quot;background-color: rgb(51, 51, 51);&quot;&gt;Vende&lt;/span&gt;" style="rhombus;whiteSpace=wrap;html=1;fontFamily=Helvetica;fontSize=11;fontColor=#ffffff;labelBackgroundColor=default;fillColor=#60a917;strokeColor=#2D7600;" vertex="1" parent="1">
          <mxGeometry x="680" y="130" width="60" height="60" as="geometry" />
        </mxCell>
        <mxCell id="RIxAADwld2-dv8vtKW1H-69" value="(1,1)" style="text;strokeColor=none;align=center;fillColor=none;html=1;verticalAlign=middle;whiteSpace=wrap;rounded=0;fontFamily=Helvetica;fontSize=11;fontColor=default;labelBackgroundColor=default;" vertex="1" parent="1">
          <mxGeometry x="490" y="-80" width="60" height="30" as="geometry" />
        </mxCell>
        <mxCell id="RIxAADwld2-dv8vtKW1H-70" value="(1,1)" style="text;strokeColor=none;align=center;fillColor=none;html=1;verticalAlign=middle;whiteSpace=wrap;rounded=0;fontFamily=Helvetica;fontSize=11;fontColor=default;labelBackgroundColor=default;" vertex="1" parent="1">
          <mxGeometry x="630" y="-10" width="60" height="30" as="geometry" />
        </mxCell>
        <mxCell id="RIxAADwld2-dv8vtKW1H-71" value="Tiene" style="rhombus;whiteSpace=wrap;html=1;fontFamily=Helvetica;fontSize=11;fontColor=#ffffff;labelBackgroundColor=#333333;fillColor=#60a917;strokeColor=#2D7600;" vertex="1" parent="1">
          <mxGeometry x="540" y="-40" width="60" height="60" as="geometry" />
        </mxCell>
        <mxCell id="RIxAADwld2-dv8vtKW1H-74" value="" style="edgeStyle=none;shape=connector;rounded=0;orthogonalLoop=1;jettySize=auto;html=1;exitX=0.5;exitY=1;exitDx=0;exitDy=0;entryX=0.5;entryY=0;entryDx=0;entryDy=0;strokeColor=default;align=center;verticalAlign=middle;fontFamily=Helvetica;fontSize=11;fontColor=default;labelBackgroundColor=default;endArrow=none;endFill=0;" edge="1" parent="1" source="RIxAADwld2-dv8vtKW1H-2" target="RIxAADwld2-dv8vtKW1H-73">
          <mxGeometry relative="1" as="geometry">
            <mxPoint x="430" y="-60" as="sourcePoint" />
            <mxPoint x="430" y="60" as="targetPoint" />
          </mxGeometry>
        </mxCell>
        <mxCell id="RIxAADwld2-dv8vtKW1H-73" value="Tiene" style="rhombus;whiteSpace=wrap;html=1;fontFamily=Helvetica;fontSize=11;fontColor=default;labelBackgroundColor=default;" vertex="1" parent="1">
          <mxGeometry x="400" y="-30" width="60" height="60" as="geometry" />
        </mxCell>
        <mxCell id="RIxAADwld2-dv8vtKW1H-75" value="(1,1)" style="text;strokeColor=none;align=center;fillColor=none;html=1;verticalAlign=middle;whiteSpace=wrap;rounded=0;fontFamily=Helvetica;fontSize=11;fontColor=default;labelBackgroundColor=default;" vertex="1" parent="1">
          <mxGeometry x="420" y="-60" width="60" height="30" as="geometry" />
        </mxCell>
        <mxCell id="RIxAADwld2-dv8vtKW1H-76" value="(1,N)" style="text;strokeColor=none;align=center;fillColor=none;html=1;verticalAlign=middle;whiteSpace=wrap;rounded=0;fontFamily=Helvetica;fontSize=11;fontColor=default;labelBackgroundColor=default;" vertex="1" parent="1">
          <mxGeometry x="420" y="35" width="60" height="30" as="geometry" />
        </mxCell>
        <mxCell id="RIxAADwld2-dv8vtKW1H-77" value="1.N" style="text;strokeColor=none;align=center;fillColor=none;html=1;verticalAlign=middle;whiteSpace=wrap;rounded=0;fontFamily=Helvetica;fontSize=11;fontColor=default;labelBackgroundColor=default;" vertex="1" parent="1">
          <mxGeometry x="354" y="-15" width="60" height="30" as="geometry" />
        </mxCell>
        <mxCell id="RIxAADwld2-dv8vtKW1H-78" value="1:1" style="text;strokeColor=none;align=center;fillColor=none;html=1;verticalAlign=middle;whiteSpace=wrap;rounded=0;fontFamily=Helvetica;fontSize=11;fontColor=default;labelBackgroundColor=default;" vertex="1" parent="1">
          <mxGeometry x="570" y="-45" width="60" height="30" as="geometry" />
        </mxCell>
        <mxCell id="RIxAADwld2-dv8vtKW1H-79" value="Tiene" style="rhombus;whiteSpace=wrap;html=1;fontFamily=Helvetica;fontSize=11;fontColor=#ffffff;labelBackgroundColor=#333333;fillColor=#60a917;strokeColor=#2D7600;" vertex="1" parent="1">
          <mxGeometry x="270" y="260" width="60" height="60" as="geometry" />
        </mxCell>
        <mxCell id="RIxAADwld2-dv8vtKW1H-80" value="Tiene" style="rhombus;whiteSpace=wrap;html=1;fontFamily=Helvetica;fontSize=11;fontColor=#ffffff;labelBackgroundColor=#333333;fillColor=#60a917;strokeColor=#2D7600;" vertex="1" parent="1">
          <mxGeometry x="540" y="260" width="60" height="60" as="geometry" />
        </mxCell>
        <mxCell id="RIxAADwld2-dv8vtKW1H-81" value="" style="rhombus;whiteSpace=wrap;html=1;fontFamily=Helvetica;fontSize=11;fontColor=#ffffff;labelBackgroundColor=default;fillColor=#60a917;strokeColor=#2D7600;" vertex="1" parent="1">
          <mxGeometry x="130" y="60" width="60" height="60" as="geometry" />
        </mxCell>
        <mxCell id="RIxAADwld2-dv8vtKW1H-82" value="1:1" style="text;strokeColor=none;align=center;fillColor=none;html=1;verticalAlign=middle;whiteSpace=wrap;rounded=0;fontFamily=Helvetica;fontSize=11;fontColor=default;labelBackgroundColor=default;" vertex="1" parent="1">
          <mxGeometry x="180" y="75" width="60" height="30" as="geometry" />
        </mxCell>
        <mxCell id="RIxAADwld2-dv8vtKW1H-83" value="(1,1)" style="text;strokeColor=none;align=center;fillColor=none;html=1;verticalAlign=middle;whiteSpace=wrap;rounded=0;fontFamily=Helvetica;fontSize=11;fontColor=default;labelBackgroundColor=default;" vertex="1" parent="1">
          <mxGeometry x="730" y="90" width="60" height="30" as="geometry" />
        </mxCell>
        <mxCell id="RIxAADwld2-dv8vtKW1H-84" value="(1,N)" style="text;strokeColor=none;align=center;fillColor=none;html=1;verticalAlign=middle;whiteSpace=wrap;rounded=0;fontFamily=Helvetica;fontSize=11;fontColor=default;labelBackgroundColor=default;" vertex="1" parent="1">
          <mxGeometry x="700" y="230" width="60" height="30" as="geometry" />
        </mxCell>
        <mxCell id="RIxAADwld2-dv8vtKW1H-85" value="1:N" style="text;strokeColor=none;align=center;fillColor=none;html=1;verticalAlign=middle;whiteSpace=wrap;rounded=0;fontFamily=Helvetica;fontSize=11;fontColor=default;labelBackgroundColor=default;" vertex="1" parent="1">
          <mxGeometry x="720" y="145" width="60" height="30" as="geometry" />
        </mxCell>
        <mxCell id="RIxAADwld2-dv8vtKW1H-86" style="edgeStyle=none;shape=connector;rounded=0;orthogonalLoop=1;jettySize=auto;html=1;exitX=0.75;exitY=0;exitDx=0;exitDy=0;strokeColor=default;align=center;verticalAlign=middle;fontFamily=Helvetica;fontSize=11;fontColor=default;labelBackgroundColor=default;endArrow=none;endFill=0;" edge="1" parent="1" source="RIxAADwld2-dv8vtKW1H-85" target="RIxAADwld2-dv8vtKW1H-85">
          <mxGeometry relative="1" as="geometry" />
        </mxCell>
      </root>
    </mxGraphModel>
  </diagram>
</mxfile>
